<?xml version="1.0" encoding="utf-8"?>
<!DOCTYPE svg PUBLIC "-//W3C//DTD SVG 1.1//EN" "http://www.w3.org/Graphics/SVG/1.1/DTD/svg11.dtd">
<svg version="1.1" xmlns="http://www.w3.org/2000/svg" xmlns:xlink="http://www.w3.org/1999/xlink" x="0px" y="0px" viewBox="0 0 256 256" enable-background="new 0 0 256 256" xml:space="preserve">
<metadata> Svg Vector Icons : http://www.onlinewebfonts.com/icon </metadata>
<g><g><path fill="#000000" d="M88.7,98.5H49.3c-5.9,0-9.8-3.9-9.8-9.8c0-5.9,3.9-9.8,9.8-9.8h39.3c5.9,0,9.8,3.9,9.8,9.8C98.5,94.6,94.6,98.5,88.7,98.5z"/><path fill="#000000" d="M88.7,98.5c-5.9,0-9.8-3.9-9.8-9.8V49.3c0-5.9,3.9-9.8,9.8-9.8c5.9,0,9.8,3.9,9.8,9.8v39.3C98.5,94.6,94.6,98.5,88.7,98.5z"/><path fill="#000000" d="M88.7,98.5c-3,0-4.9-1-6.9-3L13,26.7C9,22.8,9,16.9,13,12.9c3.9-3.9,9.8-3.9,13.8,0l68.8,68.8c3.9,3.9,3.9,9.8,0,13.8C93.6,97.5,91.6,98.5,88.7,98.5z"/><path fill="#000000" d="M206.7,98.5h-39.3c-5.9,0-9.8-3.9-9.8-9.8c0-5.9,3.9-9.8,9.8-9.8h39.3c5.9,0,9.8,3.9,9.8,9.8C216.5,94.6,212.6,98.5,206.7,98.5z"/><path fill="#000000" d="M167.3,98.5c-5.9,0-9.8-3.9-9.8-9.8V49.3c0-5.9,3.9-9.8,9.8-9.8c5.9,0,9.8,3.9,9.8,9.8v39.3C177.2,94.6,173.2,98.5,167.3,98.5z"/><path fill="#000000" d="M167.3,98.5c-3,0-4.9-1-6.9-3c-3.9-3.9-3.9-9.8,0-13.8L229.3,13c3.9-3.9,9.8-3.9,13.8,0c3.9,3.9,3.9,9.8,0,13.8l-68.8,68.8C172.3,97.5,170.3,98.5,167.3,98.5z"/><path fill="#000000" d="M88.7,177.2H49.3c-5.9,0-9.8-3.9-9.8-9.8c0-5.9,3.9-9.8,9.8-9.8h39.3c5.9,0,9.8,3.9,9.8,9.8C98.5,173.2,94.6,177.2,88.7,177.2z"/><path fill="#000000" d="M88.7,216.5c-5.9,0-9.8-3.9-9.8-9.8v-39.3c0-5.9,3.9-9.8,9.8-9.8c5.9,0,9.8,3.9,9.8,9.8v39.3C98.5,212.6,94.6,216.5,88.7,216.5z"/><path fill="#000000" d="M19.8,246c-3,0-4.9-1-6.9-3c-3.9-3.9-3.9-9.8,0-13.8l68.8-68.8c3.9-3.9,9.8-3.9,13.8,0c3.9,3.9,3.9,9.8,0,13.8l-68.8,68.8C24.8,245,22.8,246,19.8,246z"/><path fill="#000000" d="M206.7,177.2h-39.3c-5.9,0-9.8-3.9-9.8-9.8c0-5.9,3.9-9.8,9.8-9.8h39.3c5.9,0,9.8,3.9,9.8,9.8C216.5,173.2,212.6,177.2,206.7,177.2z"/><path fill="#000000" d="M167.3,216.5c-5.9,0-9.8-3.9-9.8-9.8v-39.3c0-5.9,3.9-9.8,9.8-9.8c5.9,0,9.8,3.9,9.8,9.8v39.3C177.2,212.6,173.2,216.5,167.3,216.5z"/><path fill="#000000" d="M236.2,246c-3,0-4.9-1-6.9-3l-68.8-68.8c-3.9-3.9-3.9-9.8,0-13.8c3.9-3.9,9.8-3.9,13.8,0l68.8,68.8c3.9,3.9,3.9,9.8,0,13.8C241.1,245,239.1,246,236.2,246z"/></g></g>
</svg>