<?xml version="1.0" encoding="utf-8"?>
<!-- Svg Vector Icons : http://www.onlinewebfonts.com/icon -->
<!DOCTYPE svg PUBLIC "-//W3C//DTD SVG 1.1//EN" "http://www.w3.org/Graphics/SVG/1.1/DTD/svg11.dtd">
<svg version="1.1" xmlns="http://www.w3.org/2000/svg" xmlns:xlink="http://www.w3.org/1999/xlink" x="0px" y="0px" viewBox="0 0 256 256" enable-background="new 0 0 256 256" xml:space="preserve">
<metadata> Svg Vector Icons : http://www.onlinewebfonts.com/icon </metadata>
<g><g><g><path fill="#000000" d="M11.3,11.3L10,12.7V41v28.3l1.2,1.4c1,1.2,1.5,1.4,3,1.4c1,0,2.2-0.2,2.8-0.5c2.1-1.2,2.2-2.2,2.2-24.9V25.4L56,62.2C92.6,98.8,92.7,99,94.6,99c2.5,0,4.3-1.8,4.3-4.4c0-1.8-0.5-2.3-36.7-38.5L25.4,19.2h21.3c22.7,0,23.8-0.1,24.9-2.2c0.3-0.6,0.5-1.8,0.5-2.8c0-1.5-0.3-2.1-1.4-3L69.4,10H41H12.7L11.3,11.3z"/><path fill="#000000" d="M185,11.2c-1.6,1.6-1.8,3.1-1.1,5.1c1.2,3,1.4,3,25.3,3h21.3L193.8,56L157,92.7v1.9c0,2.6,1.7,4.3,4.3,4.3h1.9L200,62.2l36.8-36.8v21.3c0,22.7,0.1,23.8,2.2,24.9c0.6,0.3,1.8,0.5,2.8,0.5c1.5,0,2.1-0.3,3-1.4l1.2-1.4V41V12.6l-1.2-1.3l-1.2-1.3h-28.7h-28.6L185,11.2z"/><path fill="#000000" d="M56,193.8l-36.7,36.8v-21.3c0-22.7-0.1-23.8-2.2-24.9c-0.6-0.3-1.8-0.5-2.8-0.5c-1.5,0-2.1,0.3-3,1.4l-1.2,1.4V215v28.3l1.3,1.3l1.3,1.3H41h28.3l1.4-1.2c1.2-1,1.4-1.5,1.4-3c0-1-0.2-2.2-0.5-2.8c-1.2-2.1-2.2-2.2-24.9-2.2H25.4L62.2,200L99,163.3v-1.9c0-2.6-1.7-4.3-4.3-4.3h-1.9L56,193.8z"/><path fill="#000000" d="M158.2,158.2c-0.9,0.9-1.2,1.7-1.2,3.1v1.9l36.7,36.7l36.8,36.8h-21.3c-22.9,0-23.8,0.1-25,2.3c-1.1,1.9-0.7,4.2,0.9,5.6l1.4,1.3h28.4h28.4l1.3-1.3l1.3-1.3v-28.4v-28.4l-1.3-1.4c-1.4-1.6-3.7-1.9-5.6-0.9c-2.2,1.2-2.3,2.1-2.3,25v21.3L200,193.8L163.3,157h-1.9C159.9,157,159.2,157.3,158.2,158.2z"/></g></g></g>
</svg>