<?xml version="1.0" encoding="UTF-8"?>
<svg xmlns="http://www.w3.org/2000/svg" xmlns:xlink="http://www.w3.org/1999/xlink" width="800px" height="800px" viewBox="0 0 600 600" version="1.1">
<g id="surface1">
<path style=" stroke:none;fill-rule:nonzero;fill:rgb(0%,0%,0%);fill-opacity:1;" d="M 232.25 332.25 L 100 464.75 L 100 425 C 100 411.191406 88.808594 400 75 400 C 61.191406 400 50 411.191406 50 425 L 50 525 C 50.039062 528.265625 50.71875 531.496094 52 534.5 C 54.535156 540.609375 59.390625 545.464844 65.5 548 C 68.503906 549.28125 71.734375 549.960938 75 550 L 175 550 C 188.808594 550 200 538.808594 200 525 C 200 511.191406 188.808594 500 175 500 L 135.25 500 L 267.75 367.75 C 277.554688 357.945312 277.554688 342.054688 267.75 332.25 C 257.945312 322.445312 242.054688 322.445312 232.25 332.25 Z M 135.25 100 L 175 100 C 188.808594 100 200 88.808594 200 75 C 200 61.191406 188.808594 50 175 50 L 75 50 C 71.734375 50.039062 68.503906 50.71875 65.5 52 C 59.390625 54.535156 54.535156 59.390625 52 65.5 C 50.71875 68.503906 50.039062 71.734375 50 75 L 50 175 C 50 188.808594 61.191406 200 75 200 C 88.808594 200 100 188.808594 100 175 L 100 135.25 L 232.25 267.75 C 236.945312 272.484375 243.335938 275.144531 250 275.144531 C 256.664062 275.144531 263.054688 272.484375 267.75 267.75 C 272.484375 263.054688 275.144531 256.664062 275.144531 250 C 275.144531 243.335938 272.484375 236.945312 267.75 232.25 Z M 525 400 C 511.191406 400 500 411.191406 500 425 L 500 464.75 L 367.75 332.25 C 357.945312 322.445312 342.054688 322.445312 332.25 332.25 C 322.445312 342.054688 322.445312 357.945312 332.25 367.75 L 464.75 500 L 425 500 C 411.191406 500 400 511.191406 400 525 C 400 538.808594 411.191406 550 425 550 L 525 550 C 528.265625 549.960938 531.496094 549.28125 534.5 548 C 540.609375 545.464844 545.464844 540.609375 548 534.5 C 549.28125 531.496094 549.960938 528.265625 550 525 L 550 425 C 550 411.191406 538.808594 400 525 400 Z M 548 65.5 C 545.464844 59.390625 540.609375 54.535156 534.5 52 C 531.496094 50.71875 528.265625 50.039062 525 50 L 425 50 C 411.191406 50 400 61.191406 400 75 C 400 88.808594 411.191406 100 425 100 L 464.75 100 L 332.25 232.25 C 327.515625 236.945312 324.855469 243.335938 324.855469 250 C 324.855469 256.664062 327.515625 263.054688 332.25 267.75 C 336.945312 272.484375 343.335938 275.144531 350 275.144531 C 356.664062 275.144531 363.054688 272.484375 367.75 267.75 L 500 135.25 L 500 175 C 500 188.808594 511.191406 200 525 200 C 538.808594 200 550 188.808594 550 175 L 550 75 C 549.960938 71.734375 549.28125 68.503906 548 65.5 Z M 548 65.5 "/>
</g>
</svg>
