<?xml version="1.0" encoding="UTF-8" standalone="no"?>
<!DOCTYPE svg PUBLIC "-//W3C//DTD SVG 1.1//EN" "http://www.w3.org/Graphics/SVG/1.1/DTD/svg11.dtd">
<svg width="100%" height="100%" viewBox="0 0 248 256" version="1.1" xmlns="http://www.w3.org/2000/svg" xmlns:xlink="http://www.w3.org/1999/xlink" xml:space="preserve" xmlns:serif="http://www.serif.com/" style="fill-rule:evenodd;clip-rule:evenodd;stroke-linejoin:round;stroke-miterlimit:2;">
    <g>
        <g>
            <path d="M228.3,64.9L209.3,50.4C208.8,50 208.2,49.8 207.7,49.6L207.7,31.7C207.7,17.3 199.7,10 183.9,10L47.6,10C29,10 25.1,21.8 25.1,31.8L25.1,224.5C25.1,232.6 28.4,237.4 31.1,240.1C36.9,245.7 44.5,246 46.3,246L155.8,246C171.1,246 183.5,241.4 192.6,232.3C207.4,217.4 207.6,196.1 207.6,195.2L207.6,103L229.5,74.2C231.8,71.3 231.2,67.1 228.3,64.9ZM169.1,231C172.9,221.7 172.5,213.3 172.2,208.8L172.2,207.9C174.7,205.7 183.7,203.5 193.6,202.4C191.9,211.5 186.5,226.1 169.1,231ZM194.3,189C180.6,190.2 162.6,193.6 159.2,203.9C158.6,205.6 158.7,207.3 158.8,209.6C159.1,214.7 159.5,223.9 152.6,232.7L46.5,232.7C45.4,232.7 42.2,232.3 40.3,230.5C39,229.2 38.4,227.3 38.4,224.5L38.4,31.8C38.4,25.5 39.8,23.3 47.6,23.3L183.8,23.3C193.9,23.3 194.3,26 194.3,31.8L194.3,59.1L161.4,102.3L160.2,104.9C159,103.5 157.2,102.5 155.2,102.5L73,102.5C69.3,102.5 66.4,105.5 66.4,109.1C66.4,112.8 69.4,115.7 73,115.7L155.3,115.7C155.8,115.7 156.2,115.5 156.6,115.4C155.9,119.5 155.3,123.9 155,127.8L155,127.9L73.8,127.9C70.1,127.9 67.2,130.9 67.2,134.5C67.2,138.2 70.2,141.1 73.8,141.1L156.1,141.1C157.7,141.1 159.1,140.4 160.3,139.5C160.6,139.5 160.9,139.6 161.2,139.6C161.9,139.6 162.5,139.5 163.2,139.3C169.8,137.2 185.5,131.8 190.1,125.7L194.3,120.2L194.3,189ZM169.4,108.1L183.2,117.4L165.4,128L169.4,108.1ZM188.9,111.4L174.8,100.9L206.7,60L219.9,70L188.9,111.4Z" style="fill-rule:nonzero;"/>
            <path d="M73,64.3L121.4,64.3C125.1,64.3 128,61.3 128,57.7C128,54 125,51.1 121.4,51.1L73,51.1C69.3,51.1 66.4,54.1 66.4,57.7C66.3,61.3 69.3,64.3 73,64.3Z" style="fill-rule:nonzero;"/>
            <path d="M73,89.9L155.3,89.9C159,89.9 161.9,86.9 161.9,83.3C161.9,79.6 158.9,76.7 155.3,76.7L73,76.7C69.3,76.7 66.4,79.7 66.4,83.3C66.3,86.9 69.3,89.9 73,89.9Z" style="fill-rule:nonzero;"/>
        </g>
    </g>
</svg>
