<?xml version="1.0" encoding="utf-8"?>
<!DOCTYPE svg PUBLIC "-//W3C//DTD SVG 1.1//EN" "http://www.w3.org/Graphics/SVG/1.1/DTD/svg11.dtd">
<svg version="1.1" xmlns="http://www.w3.org/2000/svg" xmlns:xlink="http://www.w3.org/1999/xlink" x="0px" y="0px" viewBox="0 0 256 256" enable-background="new 0 0 256 256" xml:space="preserve">
<metadata> Svg Vector Icons : http://www.onlinewebfonts.com/icon </metadata>
<g><g><path fill="#000000" d="M228.3,64.9l-19-14.5c-0.5-0.4-1.1-0.6-1.6-0.8V31.7c0-14.4-8-21.7-23.8-21.7H47.6C29,10,25.1,21.8,25.1,31.8v192.7c0,8.1,3.3,12.9,6,15.6c5.8,5.6,13.4,5.9,15.2,5.9c0.2,0,0.3,0,0.3,0h93.9h12.5h2.8c15.3,0,27.7-4.6,36.8-13.7c14.8-14.9,15-36.2,15-37.1V103l21.9-28.8C231.8,71.3,231.2,67.1,228.3,64.9z M169.1,231c3.8-9.3,3.4-17.7,3.1-22.2c0-0.3,0-0.7,0-0.9c2.5-2.2,11.5-4.4,21.4-5.5C191.9,211.5,186.5,226.1,169.1,231z M194.3,189c-13.7,1.2-31.7,4.6-35.1,14.9c-0.6,1.7-0.5,3.4-0.4,5.7c0.3,5.1,0.7,14.3-6.2,23.1H46.5c-1.1,0-4.3-0.4-6.2-2.2c-1.3-1.3-1.9-3.2-1.9-6V31.8c0-6.3,1.4-8.5,9.2-8.5h136.2c10.1,0,10.5,2.7,10.5,8.5v27.3l-32.9,43.2l-1.2,2.6c-1.2-1.4-3-2.4-5-2.4H73c-3.7,0-6.6,3-6.6,6.6c0,3.7,3,6.6,6.6,6.6h82.3c0.5,0,0.9-0.2,1.3-0.3c-0.7,4.1-1.3,8.5-1.6,12.4v0.1H73.8c-3.7,0-6.6,3-6.6,6.6c0,3.7,3,6.6,6.6,6.6h82.3c1.6,0,3-0.7,4.2-1.6c0.3,0,0.6,0.1,0.9,0.1c0.7,0,1.3-0.1,2-0.3c6.6-2.1,22.3-7.5,26.9-13.6l4.2-5.5L194.3,189L194.3,189z M169.4,108.1l13.8,9.3L165.4,128L169.4,108.1z M188.9,111.4l-14.1-10.5l31.9-40.9l13.2,10L188.9,111.4z"/><path fill="#000000" d="M73,64.3h48.4c3.7,0,6.6-3,6.6-6.6c0-3.7-3-6.6-6.6-6.6H73c-3.7,0-6.6,3-6.6,6.6C66.3,61.3,69.3,64.3,73,64.3z"/><path fill="#000000" d="M73,89.9h82.3c3.7,0,6.6-3,6.6-6.6c0-3.7-3-6.6-6.6-6.6H73c-3.7,0-6.6,3-6.6,6.6C66.3,86.9,69.3,89.9,73,89.9z"/></g></g>
</svg>